<?xml version="1.0" encoding="UTF-8"?>
<svg version="1.1" xmlns="http://www.w3.org/2000/svg" width="869" height="869">
<path d="M0 0 C3.36232517 0.01073757 6.72411637 0.00001294 10.08642578 -0.01269531 C30.93938907 -0.02799065 51.52523794 1.50752469 72.11376953 4.82324219 C72.90715729 4.94979187 73.70054504 5.07634155 74.51797485 5.20672607 C113.75170182 11.54298049 151.9723906 23.14438976 187.86376953 40.26074219 C188.91290527 40.75654785 189.96204102 41.25235352 191.04296875 41.76318359 C223.78444316 57.34056024 254.13783894 76.90637168 281.86376953 100.26074219 C282.37552734 100.68758301 282.88728516 101.11442383 283.41455078 101.55419922 C326.9477707 137.90547683 362.3831055 182.12161642 388.86376953 232.26074219 C389.33137695 233.14536133 389.79898438 234.02998047 390.28076172 234.94140625 C411.77032184 275.95147648 425.82923306 319.91906737 433.17626953 365.57324219 C433.36160751 366.71037659 433.36160751 366.71037659 433.5506897 367.8704834 C436.94579509 388.97148655 438.20524518 410.03676105 438.12451172 431.39697266 C438.11377414 434.75929783 438.12449878 438.12108902 438.13720703 441.48339844 C438.15250237 462.33636172 436.61698703 482.9222106 433.30126953 503.51074219 C433.17471985 504.30412994 433.04817017 505.0975177 432.91778564 505.91494751 C426.58153123 545.14867448 414.98012196 583.36936325 397.86376953 619.26074219 C397.36796387 620.30987793 396.8721582 621.35901367 396.36132812 622.43994141 C380.78395148 655.18141581 361.21814004 685.5348116 337.86376953 713.26074219 C337.43692871 713.7725 337.01008789 714.28425781 336.5703125 714.81152344 C300.21903489 758.34474336 256.0028953 793.78007816 205.86376953 820.26074219 C204.97915039 820.72834961 204.09453125 821.19595703 203.18310547 821.67773438 C162.17303524 843.16729449 118.20544435 857.22620572 72.55126953 864.57324219 C71.41413513 864.75858017 71.41413513 864.75858017 70.25402832 864.94766235 C49.15302516 868.34276775 28.08775067 869.60221784 6.72753906 869.52148438 C3.36521389 869.5107468 0.0034227 869.52147144 -3.35888672 869.53417969 C-24.21185 869.54947503 -44.79769888 868.01395968 -65.38623047 864.69824219 C-66.17961823 864.5716925 -66.97300598 864.44514282 -67.79043579 864.3147583 C-107.02416276 857.97850389 -145.24485153 846.37709462 -181.13623047 829.26074219 C-182.18536621 828.76493652 -183.23450195 828.26913086 -184.31542969 827.75830078 C-217.0569041 812.18092413 -247.41029988 792.6151127 -275.13623047 769.26074219 C-275.64798828 768.83390137 -276.15974609 768.40706055 -276.68701172 767.96728516 C-320.22023164 731.61600754 -355.65556644 687.39986795 -382.13623047 637.26074219 C-382.60383789 636.37612305 -383.07144531 635.49150391 -383.55322266 634.58007812 C-405.04278278 593.57000789 -419.101694 549.602417 -426.44873047 503.94824219 C-426.57228912 503.19015259 -426.69584778 502.43206299 -426.82315063 501.65100098 C-430.21825603 480.54999782 -431.47770612 459.48472333 -431.39697266 438.12451172 C-431.38623508 434.76218655 -431.39695972 431.40039535 -431.40966797 428.03808594 C-431.42496331 407.18512265 -429.88944797 386.59927378 -426.57373047 366.01074219 C-426.44718079 365.21735443 -426.3206311 364.42396667 -426.19024658 363.60653687 C-419.85399217 324.3728099 -408.2525829 286.15212112 -391.13623047 250.26074219 C-390.39252197 248.68703857 -390.39252197 248.68703857 -389.63378906 247.08154297 C-374.05641242 214.34006856 -354.49060098 183.98667278 -331.13623047 156.26074219 C-330.70938965 155.74898437 -330.28254883 155.23722656 -329.84277344 154.70996094 C-293.49149582 111.17674102 -249.27535623 75.74140621 -199.13623047 49.26074219 C-197.80930176 48.55933105 -197.80930176 48.55933105 -196.45556641 47.84375 C-155.44549617 26.35418988 -111.47790529 12.29527866 -65.82373047 4.94824219 C-65.06564087 4.82468353 -64.30755127 4.70112488 -63.52648926 4.57382202 C-42.4254861 1.17871663 -21.36021161 -0.08073346 0 0 Z " fill="#010101" transform="translate(431.13623046875,-0.2607421875)"/>
<path d="M0 0 C3.36232517 0.01073757 6.72411637 0.00001294 10.08642578 -0.01269531 C30.93938907 -0.02799065 51.52523794 1.50752469 72.11376953 4.82324219 C72.90715729 4.94979187 73.70054504 5.07634155 74.51797485 5.20672607 C113.75170182 11.54298049 151.9723906 23.14438976 187.86376953 40.26074219 C188.91290527 40.75654785 189.96204102 41.25235352 191.04296875 41.76318359 C223.78444316 57.34056024 254.13783894 76.90637168 281.86376953 100.26074219 C282.37552734 100.68758301 282.88728516 101.11442383 283.41455078 101.55419922 C326.9477707 137.90547683 362.3831055 182.12161642 388.86376953 232.26074219 C389.33137695 233.14536133 389.79898438 234.02998047 390.28076172 234.94140625 C411.77032184 275.95147648 425.82923306 319.91906737 433.17626953 365.57324219 C433.36160751 366.71037659 433.36160751 366.71037659 433.5506897 367.8704834 C436.94579509 388.97148655 438.20524518 410.03676105 438.12451172 431.39697266 C438.11377414 434.75929783 438.12449878 438.12108902 438.13720703 441.48339844 C438.15250237 462.33636172 436.61698703 482.9222106 433.30126953 503.51074219 C433.17471985 504.30412994 433.04817017 505.0975177 432.91778564 505.91494751 C426.58153123 545.14867448 414.98012196 583.36936325 397.86376953 619.26074219 C397.36796387 620.30987793 396.8721582 621.35901367 396.36132812 622.43994141 C380.78395148 655.18141581 361.21814004 685.5348116 337.86376953 713.26074219 C337.43692871 713.7725 337.01008789 714.28425781 336.5703125 714.81152344 C300.21903489 758.34474336 256.0028953 793.78007816 205.86376953 820.26074219 C204.97915039 820.72834961 204.09453125 821.19595703 203.18310547 821.67773438 C162.17303524 843.16729449 118.20544435 857.22620572 72.55126953 864.57324219 C71.41413513 864.75858017 71.41413513 864.75858017 70.25402832 864.94766235 C49.15302516 868.34276775 28.08775067 869.60221784 6.72753906 869.52148438 C3.36521389 869.5107468 0.0034227 869.52147144 -3.35888672 869.53417969 C-24.21185 869.54947503 -44.79769888 868.01395968 -65.38623047 864.69824219 C-66.17961823 864.5716925 -66.97300598 864.44514282 -67.79043579 864.3147583 C-107.02416276 857.97850389 -145.24485153 846.37709462 -181.13623047 829.26074219 C-182.18536621 828.76493652 -183.23450195 828.26913086 -184.31542969 827.75830078 C-217.0569041 812.18092413 -247.41029988 792.6151127 -275.13623047 769.26074219 C-275.64798828 768.83390137 -276.15974609 768.40706055 -276.68701172 767.96728516 C-320.22023164 731.61600754 -355.65556644 687.39986795 -382.13623047 637.26074219 C-382.60383789 636.37612305 -383.07144531 635.49150391 -383.55322266 634.58007812 C-405.04278278 593.57000789 -419.101694 549.602417 -426.44873047 503.94824219 C-426.57228912 503.19015259 -426.69584778 502.43206299 -426.82315063 501.65100098 C-430.21825603 480.54999782 -431.47770612 459.48472333 -431.39697266 438.12451172 C-431.38623508 434.76218655 -431.39695972 431.40039535 -431.40966797 428.03808594 C-431.42496331 407.18512265 -429.88944797 386.59927378 -426.57373047 366.01074219 C-426.44718079 365.21735443 -426.3206311 364.42396667 -426.19024658 363.60653687 C-419.85399217 324.3728099 -408.2525829 286.15212112 -391.13623047 250.26074219 C-390.39252197 248.68703857 -390.39252197 248.68703857 -389.63378906 247.08154297 C-374.05641242 214.34006856 -354.49060098 183.98667278 -331.13623047 156.26074219 C-330.70938965 155.74898437 -330.28254883 155.23722656 -329.84277344 154.70996094 C-293.49149582 111.17674102 -249.27535623 75.74140621 -199.13623047 49.26074219 C-197.80930176 48.55933105 -197.80930176 48.55933105 -196.45556641 47.84375 C-155.44549617 26.35418988 -111.47790529 12.29527866 -65.82373047 4.94824219 C-65.06564087 4.82468353 -64.30755127 4.70112488 -63.52648926 4.57382202 C-42.4254861 1.17871663 -21.36021161 -0.08073346 0 0 Z M-214.13623047 150.26074219 C-215.14814453 151.09992188 -216.16005859 151.93910156 -217.20263672 152.80371094 C-233.49671808 166.3971024 -249.9374223 180.85497205 -263.04638672 197.61230469 C-264.98278289 200.06627964 -267.00128079 202.42703337 -269.05639648 204.78173828 C-291.05569668 230.12548759 -309.02883784 260.88327546 -321.23388672 292.05761719 C-322.13623047 294.26074219 -322.13623047 294.26074219 -323.69873047 297.32324219 C-325.22693897 300.44610303 -326.26627553 303.5499455 -327.32373047 306.85449219 C-328.14567141 309.28870191 -329.08789964 311.63858676 -330.07373047 314.01074219 C-363.07028208 395.56115492 -356.70255154 497.56705147 -322.92773438 577.3984375 C-322.66653809 578.01299805 -322.4053418 578.62755859 -322.13623047 579.26074219 C-321.65541016 580.39253906 -321.17458984 581.52433594 -320.67919922 582.69042969 C-320.17001953 583.86863281 -319.66083984 585.04683594 -319.13623047 586.26074219 C-318.69887573 587.2782959 -318.69887573 587.2782959 -318.25268555 588.31640625 C-298.81940845 632.88496955 -266.30452845 678.48652489 -227.99169922 708.96386719 C-225.49577791 710.97153029 -223.06905817 713.03947832 -220.65380859 715.14282227 C-198.33652143 734.46355156 -171.49937104 752.04900407 -144.13623047 763.26074219 C-143.19521484 763.66035156 -142.25419922 764.05996094 -141.28466797 764.47167969 C-135.03691884 767.09397439 -128.75477608 769.59878921 -122.42138672 772.00683594 C-120.23686817 772.84064147 -118.05708343 773.68695993 -115.88232422 774.54589844 C-109.36323361 777.11117236 -102.82502955 779.3708967 -96.10888672 781.36621094 C-94.18117018 781.9462991 -92.26473849 782.56590257 -90.36474609 783.23120117 C-87.08796189 784.27613455 -83.88520439 784.98601002 -80.50732422 785.62792969 C-79.23542236 785.87196533 -77.96352051 786.11600098 -76.65307617 786.36743164 C-75.29336279 786.62389867 -73.93357932 786.8799944 -72.57373047 787.13574219 C-70.4658506 787.5347459 -68.35809103 787.93438026 -66.25035095 788.3341217 C-64.84816287 788.5999238 -63.44587007 788.86517405 -62.04347229 789.12986755 C-57.27484342 790.03308001 -52.5213057 790.99244207 -47.77636719 792.01245117 C-40.43042429 793.4693352 -33.26530093 794.54269822 -25.77685547 794.84667969 C-24.91753922 794.88500412 -24.05822296 794.92332855 -23.17286682 794.96281433 C-13.80864526 795.35606038 -4.44584812 795.54542065 4.92626953 795.57324219 C5.81865326 795.57619293 6.71103699 795.57914368 7.63046265 795.58218384 C20.57381928 795.59178818 33.32134734 794.96739143 46.17626953 793.44824219 C47.2397612 793.32408432 47.2397612 793.32408432 48.32473755 793.19741821 C56.2772208 792.24386546 64.04802591 790.87321196 71.83251953 788.97436523 C74.71305992 788.29622255 77.58531368 787.74298249 80.50048828 787.23730469 C137.95526933 777.11961227 194.68247355 746.64998819 238.86376953 709.26074219 C240.31396484 708.08705078 240.31396484 708.08705078 241.79345703 706.88964844 C250.04108114 700.13089757 257.625345 692.71423746 265.17626953 685.19824219 C265.68805756 684.69163055 266.19984558 684.18501892 266.72714233 683.66305542 C273.57968752 676.86519101 279.8416331 669.81858961 285.86376953 662.26074219 C287.44414422 660.42485782 289.02682027 658.59094644 290.61376953 656.76074219 C307.60808996 636.36755767 320.39524535 612.87402695 332.328125 589.29272461 C333.30245787 587.36899808 334.28491309 585.44934668 335.27832031 583.53540039 C337.97890752 578.28335986 340.15150732 573.05753715 341.98876953 567.44824219 C342.4651258 566.00243655 342.9467792 564.5583639 343.43408203 563.11621094 C343.63791504 562.49383545 343.84174805 561.87145996 344.05175781 561.23022461 C344.86376953 559.26074219 344.86376953 559.26074219 346.3605957 556.8684082 C347.95101104 554.10939794 348.64704005 551.78045842 349.34423828 548.68261719 C350.30276924 544.5993625 351.3169778 540.55718793 352.47705078 536.52636719 C362.2539888 502.15132759 365.99989261 468.77938689 366.05126953 433.07324219 C366.05253845 432.21375977 366.05380737 431.35427734 366.05511475 430.46875 C367.28403385 415.43083025 367.28403385 415.43083025 363.86376953 402.26074219 C363.68472127 400.35377033 363.5126158 398.44595768 363.37036133 396.53588867 C360.96128911 365.19370765 351.77924955 334.42786132 340.73876953 305.13574219 C340.41416748 304.27094238 340.08956543 303.40614258 339.75512695 302.51513672 C338.01508856 297.96956802 336.09440509 293.63419475 333.86035156 289.31225586 C332.77673531 287.08157791 331.87963482 284.82101392 330.98876953 282.50683594 C328.66279797 276.57764482 325.80909576 270.96555719 322.86376953 265.32324219 C322.01045044 263.68778442 322.01045044 263.68778442 321.13989258 262.01928711 C311.21973518 243.25924959 299.41139602 225.59832515 285.86376953 209.26074219 C285.05552734 208.27847656 284.24728516 207.29621094 283.41455078 206.28417969 C271.0104354 191.33752005 257.67127167 176.85334064 242.86376953 164.26074219 C241.76549355 163.31093749 240.66789666 162.36034725 239.57080078 161.40917969 C233.13685918 155.84206819 226.6823247 150.35556661 219.86376953 145.26074219 C219.3479834 144.87096191 218.83219727 144.48118164 218.30078125 144.07958984 C201.56212654 131.45085149 183.98001901 120.84961125 165.60205078 110.76708984 C163.33775744 109.52148625 161.08246911 108.26243245 158.83251953 106.99121094 C152.7136234 103.58274817 146.58501283 100.83939187 140.00830078 98.42871094 C137.11987859 97.35586841 134.31285406 96.17841504 131.48876953 94.94824219 C116.35121142 88.60926475 100.73533464 83.65102422 84.80517578 79.7578125 C83.05007481 79.30844309 81.31438623 78.78486017 79.58251953 78.25292969 C74.39892905 76.8699129 69.1608729 76.08581875 63.86376953 75.26074219 C62.80544922 75.0904248 61.74712891 74.92010742 60.65673828 74.74462891 C57.39374482 74.22036016 54.1290282 73.70819648 50.86376953 73.19824219 C49.77837891 73.02486328 48.69298828 72.85148437 47.57470703 72.67285156 C33.73807588 70.51810172 20.15104499 70.05327052 6.17626953 70.07324219 C4.81009491 70.07514557 4.81009491 70.07514557 3.4163208 70.0770874 C-75.75934595 70.28708402 -153.25924989 99.44770329 -214.13623047 150.26074219 Z " fill="#000000" transform="translate(431.13623046875,-0.2607421875)"/>
<path d="M0 0 C0.77779233 7.2180036 1.11293864 14.28943642 0.9831543 21.54516602 C0.95709757 23.59468392 0.93162635 25.64420934 0.90666199 27.69374084 C0.8922576 28.76255053 0.8778532 29.83136021 0.86301231 30.93255806 C0.78226247 37.84603347 0.77079033 44.76005456 0.74791241 51.67392063 C0.72398735 57.73145052 0.67463093 63.78676838 0.5715332 69.84350586 C0.4726908 75.73140396 0.44251357 81.61614025 0.45847511 87.50480461 C0.45234869 89.73799044 0.42159806 91.97125659 0.36514854 94.20373726 C-0.35775448 105.55919542 -0.35775448 105.55919542 3.36562538 115.89381409 C7.09566598 119.52527814 11.36427301 121.71818562 16 124 C17.73739605 125.1729991 19.45832909 126.37171804 21.14453125 127.6171875 C22.70014738 128.7036599 24.25613752 129.789597 25.8125 130.875 C27.53659353 132.08053584 29.26054961 133.28626827 30.984375 134.4921875 C34.61596566 137.03208909 34.61596566 137.03208909 38.24804688 139.57128906 C48.91377102 147.03340691 59.43939445 154.67095899 69.88916016 162.43261719 C71.75070811 163.81489083 73.61511839 165.19317865 75.48046875 166.5703125 C98.23409639 183.46627921 98.23409639 183.46627921 99.56640625 189.61328125 C99.55662339 196.37323797 98.47861277 200.8398592 94 206 C89.52563646 210.05814367 86.49506458 211.50574728 80.51953125 211.49609375 C76.48251567 210.70120851 73.96636358 208.30887092 70.9453125 205.62890625 C68.99708363 203.79536057 68.99708363 203.79536057 66 203 C66.00886168 204.37629814 66.00886168 204.37629814 66.01790237 205.78040028 C66.1576836 228.13276979 66.23091699 250.48450005 66.23059464 272.83732319 C66.23203414 283.64722807 66.25578058 294.45621489 66.33251953 305.26586914 C66.39936917 314.69053483 66.42387723 324.11421054 66.39809489 333.53909463 C66.38591317 338.52741053 66.39455642 343.51368352 66.4539566 348.50170326 C66.50927692 353.20340826 66.50769381 357.90176403 66.46369362 362.60355568 C66.45740941 364.32281049 66.47137926 366.04228601 66.50784111 367.76116562 C66.77927382 381.41127445 66.77927382 381.41127445 62.40709686 386.32988548 C60.38182837 388.29523343 58.32466787 389.91621553 56.06216049 391.632617 C52.84681456 393.87788366 52.84681456 393.87788366 50.71106815 397.25266933 C47.36037742 400.648178 45.75475263 400.70867134 41.15156525 400.77448785 C40.24397471 400.7570108 39.33638418 400.73953376 38.40129089 400.7215271 C37.42921686 400.72665365 36.45714283 400.7317802 35.455612 400.7370621 C32.19523955 400.74695277 28.93671569 400.71393293 25.67651367 400.68115234 C23.34083093 400.67946009 21.00514499 400.68040951 18.66946411 400.68380737 C12.32464247 400.68553131 5.98049918 400.65021553 -0.36416459 400.60836363 C-6.32174677 400.57469176 -12.27930244 400.56862649 -18.23696693 400.56245239 C-30.03627987 400.54932469 -41.83534375 400.50940635 -53.63452148 400.45263672 C-65.09544632 400.39755191 -76.55630348 400.35508667 -88.01733398 400.32958984 C-88.72393832 400.3280135 -89.43054265 400.32643716 -90.15855924 400.32481305 C-93.70343053 400.31698276 -97.2483023 400.30940053 -100.79317439 400.30194163 C-130.19561017 400.23975403 -159.59780243 400.13363989 -189 400 C-188.97643433 401.85963379 -188.97643433 401.85963379 -188.95239258 403.75683594 C-188.89760566 408.40862388 -188.86347451 413.06038399 -188.83520508 417.71240234 C-188.82022858 419.71603205 -188.79984019 421.71962961 -188.77368164 423.72314453 C-188.42909853 450.81683634 -188.42909853 450.81683634 -194.4375 458.625 C-198.75287321 462.6246142 -202.03460656 463.46440278 -207.81640625 463.3125 C-211.19528975 462.82893886 -212.75204116 461.51242458 -215 459 C-221.74867365 447.02231959 -220.25485945 431.95396993 -220.125 418.625 C-220.11494135 416.80990082 -220.10582065 414.99479619 -220.09765625 413.1796875 C-220.07589144 408.7863207 -220.04152384 404.39322264 -220 400 C-221.47980347 400.00333092 -221.47980347 400.00333092 -222.98950195 400.00672913 C-232.40035585 400.02722088 -241.81120507 400.0420952 -251.22207642 400.05181217 C-256.05740303 400.05697605 -260.89271129 400.06395168 -265.72802734 400.07543945 C-331.73786316 400.22793517 -331.73786316 400.22793517 -338.75 396.5625 C-351.187709 382.39733141 -350.13199851 360.47094207 -350.20532227 342.77636719 C-350.21492581 341.28692875 -350.22493723 339.7974929 -350.23532104 338.30805969 C-350.26210839 334.3027164 -350.2832578 330.29736164 -350.30332303 326.29197979 C-350.32534611 322.09195104 -350.35265414 317.89195656 -350.37937927 313.69195557 C-350.42908733 305.75565578 -350.47410638 297.81933674 -350.51740164 289.88299966 C-350.56696234 280.84054912 -350.62180999 271.798133 -350.67708123 262.75571585 C-350.79056482 244.17050926 -350.89747569 225.58527011 -351 207 C-354.92590686 208.08521697 -358.40139349 209.04930221 -361.875 211.1875 C-365.70916033 213.15297248 -368.7006235 213.51349873 -372.94921875 212.81640625 C-376.622965 211.35390536 -378.31327225 208.44875585 -380 205 C-381.83835674 199.48492979 -381.37289496 194.43397909 -379.12280273 189.14892578 C-375.43243214 182.08594644 -369.1198965 177.24031623 -362.6875 172.8125 C-361.08568843 171.68394718 -359.48413306 170.55503065 -357.8828125 169.42578125 C-357.07102539 168.85811035 -356.25923828 168.29043945 -355.42285156 167.70556641 C-352.3494042 165.54201308 -349.31331769 163.32959604 -346.27709961 161.11425781 C-338.69041523 155.58419971 -331.00346019 150.21897212 -323.23974609 144.94091797 C-317.52067981 141.05102202 -311.84535384 137.1033177 -306.1875 133.125 C-296.45399304 126.28873222 -286.63403396 119.58368445 -276.79541016 112.89990234 C-272.13111594 109.72981172 -267.47186766 106.55232529 -262.8125 103.375 C-261.44641602 102.44361206 -261.44641602 102.44361206 -260.05273438 101.4934082 C-246.97725969 92.57714186 -233.91588347 83.64043836 -220.87890625 74.66796875 C-218.3053249 72.89689507 -215.72972657 71.12881789 -213.15234375 69.36328125 C-205.82556823 64.3414966 -198.52590386 59.28274574 -191.25 54.1875 C-190.41130371 53.60081543 -189.57260742 53.01413086 -188.70849609 52.40966797 C-184.43271893 49.41588999 -180.16613132 46.41018071 -175.9140625 43.3828125 C-167.77491708 37.60271435 -159.58021042 31.93544408 -151.125 26.625 C-150.39394043 26.15425049 -149.66288086 25.68350098 -148.90966797 25.19848633 C-147.87543701 24.56269653 -147.87543701 24.56269653 -146.8203125 23.9140625 C-146.22492676 23.5423291 -145.62954102 23.1705957 -145.01611328 22.78759766 C-141.12612669 21.2679686 -137.99360698 21.58593969 -134.18261719 23.17407227 C-132.7541748 23.98702759 -132.7541748 23.98702759 -131.296875 24.81640625 C-130.23339844 25.41646484 -129.16992188 26.01652344 -128.07421875 26.63476562 C-126.97722656 27.27091797 -125.88023437 27.90707031 -124.75 28.5625 C-123.66847656 29.17158203 -122.58695312 29.78066406 -121.47265625 30.40820312 C-115.46978213 33.82962414 -109.72878475 37.46396818 -104.11328125 41.48852539 C-101.67326519 43.23368937 -99.17089916 44.8514625 -96.625 46.4375 C-88.68126846 51.44988272 -80.85750089 56.58925666 -73.3125 62.1875 C-68.74095166 65.55635903 -64.04844148 68.40722018 -59 71 C-59 71.66 -59 72.32 -59 73 C-58.42040527 73.27400635 -57.84081055 73.5480127 -57.24365234 73.83032227 C-55.03799655 74.98019135 -53.11418787 76.25664627 -51.1015625 77.71484375 C-50.37453125 78.23626953 -49.6475 78.75769531 -48.8984375 79.29492188 C-47.38979937 80.38492589 -45.88197831 81.47606173 -44.375 82.56835938 C-40.36806058 85.43905537 -36.48866889 87.95516195 -32 90 C-31.04384148 79.76572389 -30.79208707 69.59263803 -30.68359375 59.32421875 C-30.66296706 57.66127576 -30.64196935 55.99833733 -30.62062073 54.33540344 C-30.565989 50.00371041 -30.51632548 45.67197483 -30.46777344 41.34020996 C-30.41712225 36.90189931 -30.36166622 32.46364882 -30.30664062 28.02539062 C-30.19978195 19.3503116 -30.09818318 10.67518154 -30 2 C-25.93776511 1.66338285 -21.87517324 1.33128134 -17.8125 1 C-16.66201172 0.90460938 -15.51152344 0.80921875 -14.32617188 0.7109375 C-13.21435547 0.62070313 -12.10253906 0.53046875 -10.95703125 0.4375 C-9.93585205 0.35371094 -8.91467285 0.26992187 -7.86254883 0.18359375 C-5.23031731 0.01477174 -2.63631949 -0.01303298 0 0 Z " fill="#FBFBFB" transform="translate(585,217)"/>
<path d="M0 0 C2.45040544 1.38155109 4.61093088 2.74290765 6.875 4.375 C8.19562935 5.29178544 9.5172837 6.20709575 10.83984375 7.12109375 C11.52159668 7.59659668 12.20334961 8.07209961 12.90576172 8.56201172 C16.36339387 10.9361611 19.9032908 13.17970164 23.4375 15.4375 C29.52822118 19.35516703 35.5252578 23.3862219 41.47485352 27.5144043 C48.71746369 32.5264845 56.05843372 37.39005279 63.40063477 42.25463867 C68.90140672 45.90611176 74.34628498 49.62147448 79.74414062 53.42333984 C82.81348402 55.56855842 85.93325613 57.63119066 89.0625 59.6875 C94.63966042 63.37473043 100.11804379 67.18239416 105.5625 71.0625 C111.78268524 75.48906176 118.09674181 79.70489285 124.54296875 83.79296875 C130.12106499 87.33514734 135.59341276 91.03847951 141.08251953 94.71630859 C144.34328977 96.89928923 147.60943626 99.07419964 150.875 101.25 C154.36150795 103.57417774 154.36150795 103.57417774 156.00019169 104.71305656 C157.99961992 106.0564135 157.99961992 106.0564135 160.2875967 107.1087513 C163.96408191 109.05862816 166.53319064 110.50978777 167.81598091 114.6048851 C168.11085473 117.94214209 168.11320928 121.17365132 168.02172852 124.52294922 C168.02304276 125.78203598 168.02435699 127.04112274 168.02571106 128.33836365 C168.02828674 131.77914794 167.97549842 135.2170911 167.91254544 138.65721655 C167.85616379 142.25652883 167.85098777 145.85591119 167.84031677 149.45559692 C167.81237749 156.2665139 167.73857234 163.07612591 167.64817137 169.88646901 C167.54746537 177.64201936 167.49806381 185.39763309 167.45291245 193.15367484 C167.35891668 209.10320487 167.20068458 225.05143396 167 241 C148.14292154 241.05884302 129.30329605 240.9181635 110.44921875 240.5625 C107.95718286 240.51743174 105.46514275 240.47259617 102.97309875 240.42797852 C96.52409583 240.31190958 90.07515376 240.19275586 83.6262207 240.07287598 C77.00149974 239.95030242 70.37672428 239.83076174 63.75195312 239.7109375 C50.83458137 239.4768642 37.91726994 239.23962343 25 239 C24.96685699 238.09734909 24.93371399 237.19469818 24.89956665 236.26469421 C24.5843321 227.71772695 24.26144581 219.17108934 23.93017006 210.6247282 C23.76016208 206.23197733 23.5930142 201.83915807 23.43261719 197.44604492 C23.27743641 193.19878391 23.11446263 188.95188431 22.94630051 184.70511818 C22.88378191 183.09269336 22.8239736 181.48016088 22.76704788 179.86752892 C23.0414787 162.99446492 23.0414787 162.99446492 15.97265625 148.56640625 C6.19153866 140.79961782 -2.80148134 139.84253873 -14.87109375 139.76171875 C-16.02561539 139.753647 -17.18013702 139.74557526 -18.36964417 139.73725891 C-20.81306472 139.72344974 -23.2565043 139.71271348 -25.69995117 139.70483398 C-28.17559543 139.69335245 -30.65121568 139.67296208 -33.12670898 139.64331055 C-56.85961053 138.49005318 -56.85961053 138.49005318 -77.703125 148.14453125 C-88.68354833 163.85447427 -85.54095329 188.53613975 -85.66955566 206.83105469 C-85.69976935 210.69347311 -85.74615463 214.5556976 -85.79101562 218.41796875 C-85.87614456 225.94521452 -85.94388196 233.47247593 -86 241 C-119.68122105 241.14138065 -153.32793342 240.7949703 -187 240 C-187.32815215 228.25207696 -187.63453435 216.50368243 -187.92986298 204.75489044 C-187.99812046 202.07382577 -188.0688339 199.39283662 -188.14019775 196.71185303 C-188.39125656 187.16075023 -188.59395989 177.61106288 -188.70376778 168.05720329 C-188.75614974 163.62708162 -188.83314883 159.19990158 -188.96020508 154.77124023 C-189.0858 150.36341619 -189.15217841 145.95829307 -189.17746544 141.54879189 C-189.19691066 139.90073014 -189.23695572 138.25276032 -189.29932594 136.60576439 C-189.75701264 124.00994215 -189.75701264 124.00994215 -185.45489502 119.08851624 C-182.40057055 116.76665085 -179.34783839 114.86670173 -176 113 C-174.01381891 111.67182441 -172.03578655 110.33128699 -170.0703125 108.97265625 C-168.09048344 107.66632319 -166.10868039 106.36297733 -164.125 105.0625 C-156.43767122 99.98341436 -148.82452834 94.84965463 -141.390625 89.40625 C-137.40333245 86.5281032 -133.28579779 83.84283499 -129.18945312 81.12353516 C-124.14359181 77.76400502 -119.13496702 74.3502316 -114.125 70.9375 C-113.05000244 70.2057959 -111.97500488 69.4740918 -110.86743164 68.72021484 C-108.65532726 67.21442851 -106.44350097 65.70823507 -104.23193359 64.20166016 C-102.14387359 62.7792304 -100.0556677 61.35701476 -97.96728516 59.93505859 C-89.02883717 53.84889285 -80.09251705 47.76000717 -71.1875 41.625 C-60.16071278 34.03105318 -49.08514152 26.50842747 -38 19 C-37.23171875 18.47954102 -36.4634375 17.95908203 -35.671875 17.42285156 C-32.06383858 14.98363992 -28.44156665 12.56889348 -24.79638672 10.18554688 C-23.50566962 9.33372271 -22.22158232 8.47182098 -20.94189453 7.60351562 C-18.80620724 6.15490365 -16.65498673 4.73219463 -14.5 3.3125 C-13.52921509 2.64166382 -13.52921509 2.64166382 -12.53881836 1.95727539 C-8.04843273 -0.95032355 -5.3443931 -1.61055639 0 0 Z " fill="#010101" transform="translate(451,281)"/>
<path d="M0 0 C2.55085597 0.50955727 4.93294724 0.82523996 7.51171875 1.05859375 C12.67589974 1.59493463 17.47399799 2.96820361 22.43359375 4.4609375 C24.30721131 5.01329349 26.1809092 5.56537705 28.0546875 6.1171875 C28.95300293 6.38402344 29.85131836 6.65085937 30.77685547 6.92578125 C33.83675954 7.8213039 36.9163462 8.63661845 39.99609375 9.4609375 C46.86671579 11.42159869 53.58028367 13.81173602 60.30859375 16.2109375 C61.40461914 16.59934814 62.50064453 16.98775879 63.62988281 17.38793945 C64.66983398 17.76394287 65.70978516 18.13994629 66.78125 18.52734375 C68.17935913 19.03116577 68.17935913 19.03116577 69.60571289 19.54516602 C72.24609375 20.6484375 72.24609375 20.6484375 74.76538086 22.16601562 C77.28167002 23.66969713 79.62424896 24.572304 82.40234375 25.48828125 C88.18938258 27.53253141 93.40422506 30.20997531 98.74609375 33.2109375 C99.68952637 33.73397461 100.63295898 34.25701172 101.60498047 34.79589844 C104.4916604 36.40245745 107.37011111 38.02281735 110.24609375 39.6484375 C111.12555664 40.1439209 112.00501953 40.6394043 112.91113281 41.14990234 C138.35885933 55.53276722 161.7704686 72.80343332 183.24609375 92.6484375 C184.67501953 93.94007813 184.67501953 93.94007813 186.1328125 95.2578125 C195.69201828 103.90559135 204.89274044 112.81303764 213.24609375 122.6484375 C214.18258033 123.72223883 215.12018078 124.79506926 216.05859375 125.8671875 C222.17532853 132.88044893 227.97719134 139.96538642 233.24609375 147.6484375 C233.74334961 148.36854004 234.24060547 149.08864258 234.75292969 149.83056641 C248.73733739 170.15408244 262.48214298 191.78180326 271.2265625 214.98046875 C272.34499093 217.9072374 273.54805671 220.79146085 274.7578125 223.68139648 C287.87669689 255.09821851 298.50758418 290.31419953 300.0703125 324.515625 C300.01324752 326.63113669 300.01324752 326.63113669 301.24609375 327.6484375 C308.70873684 372.0302873 300.39806637 421.8971487 287.84228516 464.54492188 C287.01276046 467.47169697 286.35087673 470.43107857 285.68359375 473.3984375 C284.55632606 478.040128 282.73970426 481.91293566 280.48828125 486.109375 C279.17657995 488.79052546 278.30278939 491.41970667 277.43359375 494.2734375 C275.18012965 501.29111508 271.92256114 507.66499157 268.52539062 514.17529297 C267.09120286 516.94787352 265.69201182 519.73687085 264.29296875 522.52734375 C257.40584722 536.15988955 249.94614649 549.09502008 241.24609375 561.6484375 C240.70452637 562.43331543 240.16295898 563.21819336 239.60498047 564.02685547 C232.38550851 574.42401007 224.69089042 584.22393882 216.24609375 593.6484375 C214.99505859 595.06576172 214.99505859 595.06576172 213.71875 596.51171875 C201.81594148 609.77170421 189.32825849 622.70295432 175.24609375 633.6484375 C173.38898829 635.22832287 171.53500046 636.8118778 169.68359375 638.3984375 C156.40293886 649.45136963 142.14195439 658.92908041 127.24609375 667.6484375 C126.61719238 668.01807617 125.98829102 668.38771484 125.34033203 668.76855469 C121.33703245 671.11326726 117.29891899 673.3901002 113.24609375 675.6484375 C111.61994141 676.58042969 111.61994141 676.58042969 109.9609375 677.53125 C97.86072356 684.2702643 85.05206152 689.41411085 72.24609375 694.6484375 C71.36356934 695.0108252 70.48104492 695.37321289 69.57177734 695.74658203 C48.32021752 704.37705593 25.90508803 711.03366147 3.24609375 714.6484375 C2.48651367 714.7731543 1.72693359 714.89787109 0.94433594 715.02636719 C-1.53695027 715.43108765 -4.01986697 715.82348956 -6.50390625 716.2109375 C-7.22852051 716.32590576 -7.95313477 716.44087402 -8.69970703 716.55932617 C-24.14717083 718.87463305 -39.49446652 719.96528173 -55.10839844 719.85424805 C-57.75335407 719.83594132 -60.39795602 719.8337401 -63.04296875 719.83398438 C-71.85370496 719.81673167 -80.65107008 719.64041267 -89.453125 719.2421875 C-90.24368286 719.20945236 -91.03424072 719.17671722 -91.84875488 719.14299011 C-99.28668332 718.7643632 -106.50571659 717.45270352 -113.77734375 715.8828125 C-118.33256302 714.92431517 -122.90091898 714.05936158 -127.48046875 713.2265625 C-129.53902895 712.84702605 -131.59736014 712.4662728 -133.65560913 712.08505249 C-135.62509626 711.72312317 -137.5963398 711.37079222 -139.56762695 711.01879883 C-147.2517581 709.57358402 -154.29380019 707.59860214 -161.59228516 704.82373047 C-164.76163938 703.6455628 -167.94555107 702.65529138 -171.19140625 701.7109375 C-177.28673121 699.87419316 -183.14568324 697.57869515 -189.02734375 695.1640625 C-193.62708739 693.27612594 -198.28672155 691.55041046 -202.94921875 689.82421875 C-205.74723466 688.65123436 -208.15615861 687.20787567 -210.75390625 685.6484375 C-212.4277047 684.92529157 -214.10229481 684.20374987 -215.78515625 683.50195312 C-239.10343046 673.39274099 -260.98650154 658.48741093 -280.56640625 642.3984375 C-281.24380859 641.84325439 -281.92121094 641.28807129 -282.61914062 640.71606445 C-284.66791806 639.0314663 -286.71128593 637.34049254 -288.75390625 635.6484375 C-289.35638184 635.15327637 -289.95885742 634.65811523 -290.57958984 634.14794922 C-303.29028777 623.67342546 -315.05848821 612.17827529 -325.75390625 599.6484375 C-326.29877686 599.01035156 -326.84364746 598.37226562 -327.4050293 597.71484375 C-346.30511176 575.40322457 -361.82939979 551.57306696 -375.58203125 525.79956055 C-376.50314801 524.1087356 -377.47995279 522.44823812 -378.4765625 520.80078125 C-379.7779576 518.6079106 -380.71887526 516.4657088 -381.62890625 514.0859375 C-383.05698808 510.41603664 -384.53216408 506.77528539 -386.06640625 503.1484375 C-418.98544597 424.20370336 -424.23990566 332.39117051 -397.75390625 250.6484375 C-397.53847168 249.96942383 -397.32303711 249.29041016 -397.10107422 248.59082031 C-395.02370134 242.04533786 -392.83838905 235.80068503 -389.75390625 229.6484375 C-389.23054896 228.05813925 -388.74828636 226.45347605 -388.31640625 224.8359375 C-387.12879872 220.70405298 -385.65293023 216.87649816 -383.83447266 212.98413086 C-382.84671217 210.8490417 -381.90183314 208.70067662 -380.96484375 206.54296875 C-371.07106792 184.26769558 -358.35612452 163.1419217 -343.75390625 143.6484375 C-343.1496582 142.83802002 -343.1496582 142.83802002 -342.53320312 142.01123047 C-326.28666961 120.28696319 -307.81393362 98.49432849 -286.3984375 81.734375 C-283.9643705 79.81444623 -281.62043754 77.81548673 -279.28369141 75.77905273 C-209.70374561 15.44869495 -111.40324564 -15.47538622 0 0 Z M-105.75390625 16.6484375 C-106.54506836 16.73963867 -107.33623047 16.83083984 -108.15136719 16.92480469 C-161.22712167 23.39745767 -214.26790417 50.85071407 -255.75390625 83.6484375 C-256.42115723 84.1729248 -257.0884082 84.69741211 -257.77587891 85.23779297 C-271.10650809 95.75631977 -283.35008148 107.16592636 -295.39746094 119.11776733 C-296.45073942 120.16234186 -297.50538082 121.20554431 -298.56152344 122.2472229 C-305.43632543 129.03897267 -311.78124921 136.03157251 -317.75390625 143.6484375 C-318.60637939 144.72001099 -318.60637939 144.72001099 -319.47607422 145.81323242 C-327.82747486 156.36937183 -335.51285605 167.30465252 -342.75390625 178.6484375 C-343.15029297 179.2686377 -343.54667969 179.88883789 -343.95507812 180.52783203 C-349.06155874 188.59686791 -353.60629228 196.95791538 -358.06640625 205.3984375 C-358.57042969 206.34485107 -359.07445312 207.29126465 -359.59375 208.26635742 C-362.46366076 213.7745334 -364.83524544 219.24813783 -366.7980957 225.14331055 C-367.83222459 227.85370557 -369.14504717 230.2216861 -370.62890625 232.7109375 C-374.52496956 239.5903843 -376.69324925 246.95520208 -379.046875 254.46289062 C-379.67347337 256.39980657 -380.3653454 258.31533709 -381.06640625 260.2265625 C-387.47723103 277.77619534 -390.49987697 297.02940787 -391.30151367 315.65966797 C-391.34341166 316.61530577 -391.38530966 317.57094357 -391.42847729 318.55554008 C-391.87591378 329.52453774 -391.95640025 340.49190247 -391.9921875 351.46875 C-391.99626303 352.5478854 -392.00033855 353.6270208 -392.00453758 354.73885727 C-392.02514153 360.42616313 -392.03956418 366.11344655 -392.04907227 371.80078125 C-392.06022616 377.63283388 -392.09480176 383.46451446 -392.13424397 389.2964344 C-392.16044746 393.82968828 -392.16876626 398.36285244 -392.17235374 402.89617538 C-392.17719123 405.04658466 -392.18872299 407.1969907 -392.20739174 409.34732437 C-392.29831846 420.49073601 -392.32780039 430.26794017 -387.75390625 440.6484375 C-387.02417059 442.86657282 -386.29590271 445.08519268 -385.5703125 447.3046875 C-384.81903867 449.58594681 -384.0677364 451.86719674 -383.31640625 454.1484375 C-382.94708984 455.28152344 -382.57777344 456.41460938 -382.19726562 457.58203125 C-380.01169618 464.19555683 -377.6068393 470.64299779 -374.86425781 477.04638672 C-373.84298279 479.43969129 -372.88018008 481.8468325 -371.94140625 484.2734375 C-359.97779035 514.08827556 -344.83441322 542.7113627 -325.00097656 568.05175781 C-323.94444699 569.4044797 -322.90575018 570.77110051 -321.87109375 572.140625 C-314.68178831 581.62217275 -306.90202588 590.780789 -298.34765625 599.0546875 C-296.75390625 600.6484375 -296.75390625 600.6484375 -294.75390625 603.2109375 C-292.44938183 606.01957663 -289.89663295 608.22557821 -287.13671875 610.578125 C-284.91684887 612.50686441 -282.7642702 614.49450625 -280.61938477 616.50585938 C-269.79234556 626.62173679 -258.07602684 635.43369044 -245.75390625 643.6484375 C-244.67882812 644.36515625 -243.60375 645.081875 -242.49609375 645.8203125 C-224.14130578 659.53576525 -224.14130578 659.53576525 -203.75390625 666.6484375 C-203.75390625 667.3084375 -203.75390625 667.9684375 -203.75390625 668.6484375 C-200.46741836 670.06760273 -197.18099897 671.4752918 -193.86328125 672.8203125 C-192.8371875 673.23796875 -191.81109375 673.655625 -190.75390625 674.0859375 C-189.78453125 674.47652344 -188.81515625 674.86710938 -187.81640625 675.26953125 C-184.75390625 676.6484375 -184.75390625 676.6484375 -181.375 678.6484375 C-177.67616581 680.80973103 -173.91810279 682.03376679 -169.81640625 683.2109375 C-161.25887454 685.76509132 -161.25887454 685.76509132 -157.69140625 687.2109375 C-143.27300704 692.70660144 -127.95356453 694.57720971 -112.75390625 696.6484375 C-111.57747559 696.83083984 -110.40104492 697.01324219 -109.18896484 697.20117188 C-96.19083418 699.02855134 -83.20677248 698.95125569 -70.10009766 698.90917969 C-66.15771907 698.89851544 -62.21580179 698.90909586 -58.2734375 698.921875 C-44.63156904 698.92861476 -31.17515237 698.51544985 -17.60229492 697.11376953 C-13.64027163 696.70655075 -9.69641792 696.47293741 -5.71614075 696.34178162 C1.440813 696.10020146 7.87440734 694.92559344 14.71875 692.75390625 C18.53272008 691.55860887 22.36335724 690.58774926 26.24609375 689.6484375 C40.94526095 686.15025899 40.94526095 686.15025899 54.98681641 680.69360352 C57.17480851 679.68141482 59.37651318 678.79414739 61.625 677.92578125 C68.33493744 675.25779696 74.88865963 672.25604548 81.43359375 669.2109375 C82.08750092 668.90674896 82.74140808 668.60256042 83.41513062 668.28915405 C120.43075374 650.9953335 153.89914714 628.05977476 183.24609375 599.6484375 C183.86291016 599.05353516 184.47972656 598.45863281 185.11523438 597.84570312 C192.70650467 590.49290206 199.7101273 582.96900696 206.24609375 574.6484375 C207.12729598 573.5887173 208.0115759 572.53155102 208.8984375 571.4765625 C223.51062535 553.94093847 235.30581534 534.60600403 245.80249023 514.38671875 C247.29506074 511.55555508 248.8518035 508.76586635 250.4140625 505.97265625 C252.85644359 501.51388154 254.78669091 497.07571069 256.43359375 492.2734375 C258.87843994 485.25544925 258.87843994 485.25544925 260.74609375 482.171875 C263.9976021 476.70188959 265.53651894 470.22371125 267.43896484 464.17529297 C268.20385181 461.78068315 269.01259833 459.4050773 269.828125 457.02734375 C275.28433389 440.39995842 276.77870023 423.009022 278.24609375 405.6484375 C278.33271271 404.65182098 278.41933167 403.65520447 278.50857544 402.62838745 C279.26664012 393.14548826 279.42635591 383.71698279 279.44921875 374.2109375 C279.45345982 372.99712402 279.45345982 372.99712402 279.45778656 371.75878906 C279.47265601 367.47346692 279.48196172 363.18817735 279.48632812 358.90283203 C279.49070411 355.41411837 279.5045791 351.92565322 279.52734375 348.43701172 C279.76405586 321.4715887 279.76405586 321.4715887 276.62353516 294.72773743 C276.23668396 292.59659959 275.89778413 290.46205336 275.5703125 288.32104492 C272.73662567 270.19725627 265.82945351 252.69560968 259.24609375 235.6484375 C258.65248047 234.10929687 258.65248047 234.10929687 258.046875 232.5390625 C238.06914093 182.91016523 205.62850899 136.82721265 165.24609375 101.6484375 C164.74577637 101.20870605 164.24545898 100.76897461 163.72998047 100.31591797 C141.28291134 80.64026651 116.42506196 64.86934536 90.24609375 50.6484375 C88.83675734 49.87327196 87.42783365 49.09735503 86.01953125 48.3203125 C81.4593017 45.82529036 76.95033392 43.51097888 72.16543579 41.47624207 C70.32598667 40.682895 68.50140031 39.85535162 66.67773438 39.02636719 C56.89771283 34.58399018 46.99444879 31.0899903 36.74609375 27.8984375 C34.50996787 27.19400444 32.27466447 26.48705262 30.03991699 25.77825928 C28.66953725 25.34443482 27.29827138 24.91339383 25.92590332 24.48590088 C22.58967862 23.43794439 19.30833148 22.30636109 16.04638672 21.05004883 C13.29680082 20.00527962 10.70818719 19.1922605 7.78515625 18.76953125 C6.99947266 18.65391846 6.21378906 18.53830566 5.40429688 18.41918945 C4.56833984 18.30921631 3.73238281 18.19924316 2.87109375 18.0859375 C1.95521484 17.96371826 1.03933594 17.84149902 0.09570312 17.71557617 C-2.85200301 17.33819248 -5.80158128 16.98770698 -8.75390625 16.6484375 C-9.67333008 16.54112305 -10.59275391 16.43380859 -11.54003906 16.32324219 C-42.38399735 12.91536886 -74.94318493 12.95958261 -105.75390625 16.6484375 Z " fill="#F8F8F8" transform="translate(494.75390625,75.3515625)"/>
<path d="M0 0 C2.51357121 1.4642738 3.88028892 2.99227132 5.28125 5.52734375 C6.56028207 10.41092074 7.09624563 15.12535504 7.15820312 20.16674805 C7.17492065 21.33203537 7.19163818 22.49732269 7.2088623 23.69792175 C7.22243774 24.9448732 7.23601318 26.19182465 7.25 27.4765625 C7.27813712 29.45919075 7.30627907 31.44181895 7.33469391 33.42444324 C7.38319613 36.89619517 7.42572378 40.36802038 7.46875 43.83984375 C7.52012611 47.96617569 7.5727351 52.09247313 7.63171387 56.21870422 C7.66797354 58.78309435 7.70048985 61.34754109 7.7286377 63.91203308 C7.31193406 79.18946038 7.31193406 79.18946038 13.21875 92.70703125 C15.5561798 94.63749782 17.65100729 95.08538099 20.59375 95.77734375 C21.57601562 96.01710938 22.55828125 96.256875 23.5703125 96.50390625 C32.5039841 98.20849187 41.32686571 98.31909102 50.39282227 98.35766602 C51.83255788 98.36726209 53.27229078 98.37727314 54.71202087 98.38766479 C58.59564409 98.41453272 62.47927923 98.43563948 66.36294293 98.45566678 C70.43086204 98.47763903 74.49874515 98.50497237 78.56663513 98.53172302 C86.25866374 98.58149878 93.95071249 98.62649324 101.64278024 98.66974539 C110.40463563 98.71924754 119.16645487 98.77411725 127.92827523 98.82942498 C145.94173321 98.94301274 163.95522536 99.04990168 181.96875 99.15234375 C182.17513953 125.12249665 182.17513953 125.12249665 180.96875 136.15234375 C165.44803909 136.33093332 149.92720412 136.4963248 134.40625 136.65234375 C133.22537308 136.664221 132.04449615 136.67609825 130.82783508 136.68833542 C89.45721643 137.10046572 48.09105604 137.24202818 6.71875 137.21484375 C6.05369493 137.21441952 5.38863986 137.21399529 4.70343161 137.2135582 C-12.20814349 137.20258533 -29.11969817 137.18236256 -46.03125 137.15234375 C-46.0547111 122.02611954 -46.07229361 106.89989617 -46.08306217 91.7736578 C-46.08819725 84.74875718 -46.09518619 77.72386793 -46.10668945 70.69897461 C-46.11780051 63.91030839 -46.12354681 57.12165395 -46.12612724 50.3329792 C-46.12796449 47.75245542 -46.13155194 45.17193223 -46.13698006 42.5914135 C-46.21171952 5.56316006 -46.21171952 5.56316006 -43.03125 -1.84765625 C-31.72220696 -5.61733726 -11.12556404 -4.64278346 0 0 Z " fill="#020202" transform="translate(439.03125,450.84765625)"/>
<path d="M0 0 C1.31870338 -0.00043808 1.31870338 -0.00043808 2.66404724 -0.00088501 C5.53712224 0.00049572 8.40992992 0.01599706 11.28295898 0.03173828 C13.28791665 0.03547289 15.29287615 0.03831774 17.2978363 0.04031372 C22.55031457 0.04791491 27.80268055 0.06753294 33.05511475 0.08972168 C39.3703301 0.11387256 45.6855832 0.12297783 52.0008316 0.1346283 C61.57281652 0.15395958 71.1445555 0.19230669 80.71655273 0.22705078 C80.71655273 13.09705078 80.71655273 25.96705078 80.71655273 39.22705078 C72.39436523 39.25798828 72.39436523 39.25798828 63.90405273 39.28955078 C62.19757568 39.29865479 60.49109863 39.30775879 58.73291016 39.31713867 C50.19496161 39.34318224 41.71402779 39.12313915 33.19113159 38.62039185 C22.64595226 38.01680928 12.08802592 37.86823147 1.52905273 37.66455078 C-0.60051025 37.62120957 -2.7300676 37.57759127 -4.85961914 37.53369141 C-10.00083625 37.42829642 -15.14211389 37.32660589 -20.28344727 37.22705078 C-20.93799063 30.07806723 -21.48310324 22.96986705 -21.53344727 15.78955078 C-21.55407227 15.02707031 -21.57469727 14.26458984 -21.59594727 13.47900391 C-21.62714398 8.99057648 -21.57662295 5.58935802 -18.28344727 2.22705078 C-12.32715435 0.17852723 -6.23587391 -0.05541136 0 0 Z " fill="#050505" transform="translate(284.283447265625,549.77294921875)"/>
<path d="M0 0 C0.66 0.33 1.32 0.66 2 1 C-9.88 12.88 -21.76 24.76 -34 37 C-34.66 36.67 -35.32 36.34 -36 36 C-29.63299092 28.86289911 -23.06646912 21.95926028 -16.3125 15.1875 C-15.61261963 14.48310791 -14.91273926 13.77871582 -14.19165039 13.05297852 C-9.62570458 8.4999051 -4.90574481 4.18438425 0 0 Z " fill="#D3D3D3" transform="translate(208,157)"/>
<path d="M0 0 C0.66 0 1.32 0 2 0 C1.67657623 0.50295593 1.35315247 1.00591187 1.01992798 1.52410889 C-0.35990755 4.87368121 -0.30807449 8.04856556 -0.31884766 11.61425781 C-0.32889328 12.37562042 -0.3389389 13.13698303 -0.34928894 13.92141724 C-0.38012062 16.43197898 -0.3971559 18.94243408 -0.4140625 21.453125 C-0.43277417 23.19619667 -0.45234759 24.93925929 -0.4727478 26.68231201 C-0.52407512 31.26565206 -0.56369763 35.84902148 -0.60089111 40.43249512 C-0.64092699 45.11132069 -0.69202124 49.79002402 -0.7421875 54.46875 C-0.83895388 63.64574747 -0.92335642 72.82281395 -1 82 C-1.33 82 -1.66 82 -2 82 C-2.04627317 71.60385587 -2.08184359 61.2077361 -2.10362434 50.81151009 C-2.11407626 45.98449195 -2.12826104 41.15754409 -2.15087891 36.33056641 C-2.17255722 31.67514222 -2.18455801 27.01978578 -2.18975449 22.36431503 C-2.19345928 20.58524381 -2.20069348 18.80617644 -2.21146011 17.02713394 C-2.22590854 14.54160706 -2.22798075 12.05636267 -2.22705078 9.57080078 C-2.23424133 8.82993225 -2.24143188 8.08906372 -2.24884033 7.32574463 C-2.22810432 2.22810432 -2.22810432 2.22810432 0 0 Z " fill="#5B5B5B" transform="translate(265,401)"/>
<path d="M0 0 C-1.40844718 3.21524305 -3.10344786 5.32183868 -5.625 7.75 C-6.57246094 8.67039062 -6.57246094 8.67039062 -7.5390625 9.609375 C-8.02117187 10.06828125 -8.50328125 10.5271875 -9 11 C-9 7.25983417 -8.0658409 6.54723807 -5.625 3.8125 C-4.99851563 3.09707031 -4.37203125 2.38164062 -3.7265625 1.64453125 C-2 0 -2 0 0 0 Z " fill="#D0D0D0" transform="translate(216,396)"/>
<path d="M0 0 C-1.38188453 3.21043882 -2.92421903 5.04936365 -5.625 7.25 C-6.57246094 8.03117187 -6.57246094 8.03117187 -7.5390625 8.828125 C-8.02117187 9.21484375 -8.50328125 9.6015625 -9 10 C-7.6834994 5.81113445 -4.97532335 0 0 0 Z " fill="#D2D2D2" transform="translate(378,426)"/>
<path d="M0 0 C0.66 0 1.32 0 2 0 C1.5359375 0.7734375 1.5359375 0.7734375 1.0625 1.5625 C-0.29059287 4.66665423 -0.61359424 7.65115007 -1 11 C-1.33 11 -1.66 11 -2 11 C-2.05399736 9.54207116 -2.09279177 8.08357288 -2.125 6.625 C-2.15980469 5.40683594 -2.15980469 5.40683594 -2.1953125 4.1640625 C-2 2 -2 2 0 0 Z " fill="#212121" transform="translate(265,401)"/>
</svg>
